<?xml version="1.0" encoding="iso-8859-1"?>
<!-- Uploaded to: SVG Repo, www.svgrepo.com, Generator: SVG Repo Mixer Tools -->
<svg version="1.1" id="Layer_1" xmlns="http://www.w3.org/2000/svg" xmlns:xlink="http://www.w3.org/1999/xlink" 
	 viewBox="0 0 511.979 511.979" xml:space="preserve">
<polygon style="fill:#01579B;" points="322.283,9.833 94.975,9.833 94.975,502.332 416.994,502.332 416.994,104.544 360.167,66.66 
	"/>
<polygon style="fill:#F44336;" points="322.283,104.544 322.283,9.833 416.994,104.544 "/>
<g>
	
		<rect x="-47.535" y="251.254" transform="matrix(-0.0587 -0.9983 0.9983 -0.0587 -34.6847 479.2736)" style="fill:#263238;" width="512.306" height="9.471"/>
	<polygon style="fill:#263238;" points="221.443,473.919 66.562,473.919 66.562,417.092 218.1,417.092 	"/>
</g>
<polygon style="fill:#FFECB3;" points="0.273,38.294 38.149,322.38 189.687,322.38 151.802,38.246 135.36,57.189 113.908,38.246 
	97.457,57.189 76.005,38.246 59.563,57.189 38.111,38.246 21.659,57.189 "/>
<polygon style="fill:#FFC107;" points="189.687,322.38 38.149,322.38 170.744,95.073 322.283,95.073 "/>
<polygon style="fill:#FFECB3;" points="341.225,416.997 189.687,416.997 170.744,95.073 322.283,95.073 "/>
<g>
	<polygon style="fill:#01579B;" points="303.918,218.198 209.709,218.198 210.817,237.14 305.017,237.14 	"/>
	<polygon style="fill:#01579B;" points="298.406,123.487 204.206,123.487 205.305,142.429 299.504,142.429 	"/>
	<polygon style="fill:#01579B;" points="212.465,265.554 213.563,284.496 307.773,284.496 306.665,265.554 	"/>
	<polygon style="fill:#01579B;" points="301.162,170.842 206.962,170.842 208.061,189.785 302.261,189.785 	"/>
</g>
<polygon style="fill:#FFC107;" points="341.225,416.997 189.687,416.997 322.283,189.785 473.821,189.785 "/>
<polygon style="fill:#FFECB3;" points="511.705,473.871 473.821,189.785 322.283,189.785 360.167,473.919 376.618,454.976 
	398.071,473.919 414.512,454.976 435.974,473.919 452.416,454.976 473.868,473.919 490.319,454.976 "/>
<polygon style="fill:#263238;" points="448.94,218.198 354.74,218.198 357.269,237.14 451.469,237.14 "/>
<polygon style="fill:#F44336;" points="373.682,360.265 376.211,379.207 470.411,379.207 467.892,360.265 "/>
<polygon style="fill:#263238;" points="455.257,265.554 361.057,265.554 363.577,284.496 457.786,284.496 "/>
</svg>